/* XPM */
static char *_5a60c18fe3740b7f97aaeb3d029d951JbYua7YMXEl7d6Cv[] = {
/* columns rows colors chars-per-pixel */
"32 32 171 2 ",
"   c #1D1512",
".  c #26170F",
"X  c #211815",
"o  c #291B14",
"O  c #291D1C",
"+  c #2E2015",
"@  c #2E201E",
"#  c #372216",
"$  c #3B2412",
"%  c #34231C",
"&  c #3C271B",
"*  c #3D2A1A",
"=  c #252525",
"-  c #2F2420",
";  c #342522",
":  c #3C2A24",
">  c #3C2A29",
",  c #342C32",
"<  c #392D30",
"1  c #373331",
"2  c #393136",
"3  c #3A3938",
"4  c #4F3217",
"5  c #4D311E",
"6  c #533112",
"7  c #5E3917",
"8  c #573718",
"9  c #623B18",
"0  c #473225",
"q  c #45332A",
"w  c #49342C",
"e  c #45382F",
"r  c #523726",
"t  c #543924",
"y  c #5A3D23",
"u  c #543B2C",
"i  c #5E3F28",
"p  c #443334",
"a  c #4B3431",
"s  c #4D3D3E",
"d  c #503735",
"f  c #523936",
"g  c #533E3B",
"h  c #5B3F3C",
"j  c #683F25",
"k  c #49433F",
"l  c #5D4332",
"z  c #54423C",
"x  c #5D423E",
"c  c #5E4A3E",
"v  c #694327",
"b  c #604328",
"n  c #6A4A2D",
"m  c #724E2D",
"M  c #7A492B",
"N  c #64443F",
"B  c #6B4C3A",
"V  c #794C31",
"C  c #725030",
"Z  c #70513C",
"A  c #463C45",
"S  c #4B3E46",
"D  c #4E3F48",
"F  c #503F46",
"G  c #454444",
"H  c #4D4444",
"J  c #4B4947",
"K  c #4C4C4C",
"L  c #534146",
"P  c #5E4342",
"I  c #524A47",
"U  c #524048",
"Y  c #5C454A",
"T  c #574E49",
"R  c #535353",
"E  c gray36",
"W  c #624644",
"Q  c #664846",
"!  c #694944",
"~  c #61474A",
"^  c #63484B",
"/  c #6C4B4B",
"(  c #724E4A",
")  c #63544B",
"_  c #765740",
"`  c #77514C",
"'  c #7B534E",
"]  c #7B5452",
"[  c gray40",
"{  c #6F6964",
"}  c #6B6B6B",
"|  c gray46",
" . c #7B7674",
".. c #7C7978",
"X. c #845334",
"o. c #8C5632",
"O. c #8A5738",
"+. c #84593F",
"@. c #9C5D37",
"#. c #935C3C",
"$. c #8B6037",
"%. c #946133",
"&. c #9B6539",
"*. c #9E6D3F",
"=. c #A5693D",
"-. c #A4633B",
";. c #815751",
":. c #855954",
">. c #8C5C56",
",. c #8F5E58",
"<. c #916646",
"1. c #9E6642",
"2. c #9E6846",
"3. c #91684A",
"4. c #9C6F4D",
"5. c #93605A",
"6. c #9F7651",
"7. c #A16744",
"8. c #A76F43",
"9. c #AA6C42",
"0. c #A06F4B",
"q. c #A86E4A",
"w. c #A57244",
"e. c #AA7044",
"r. c #A6764C",
"t. c #AD774A",
"y. c #AE7A4B",
"u. c #B3744B",
"i. c #B8774F",
"p. c #B07D4E",
"a. c #A27756",
"s. c #AF7552",
"d. c #A37A54",
"f. c #B47F57",
"g. c #BB7E54",
"h. c #B47E5A",
"j. c #847F7C",
"k. c #C07F57",
"l. c #AD815B",
"z. c #B58253",
"x. c #BE8357",
"c. c #B6855A",
"v. c #BF8158",
"b. c #BE8B5C",
"n. c #BE8A62",
"m. c #C4845C",
"M. c #C8875F",
"N. c #C58A5E",
"B. c #C58D61",
"V. c #C98B61",
"C. c #C69364",
"Z. c #C79465",
"A. c #C59263",
"S. c #CB9267",
"D. c #CC9165",
"F. c #C89566",
"G. c #C99667",
"H. c #CB9466",
"J. c #CA9768",
"K. c #CA946C",
"L. c #CB9869",
"P. c #CD9A6B",
"I. c #D09569",
"U. c #D2986D",
"Y. c #D39A6D",
"T. c #D3A071",
"R. c #808080",
"E. c #848281",
"W. c #888888",
"Q. c #8E8E8E",
"!. c #909090",
/* pixels */
"A Y ( ' ` ` ' ( ` ` ` / L A U U A Y ( ` ' ( ' ` ` ' ' / L A D F ",
"L ~ ( ` ` ` ` ' ` ` ' ` / Y L U L ^ ( ' ` ` ` ` ' ( ' ( / Y L F ",
"( ( ' ` ` ` ` ` ` ` ` ' :.] Y L / ` ` ` ` ` ' ` ` ` ` ' :.] ~ S ",
"' ` ` ` ` ` ` ` ` ` ` ;.,.:.~ L ( ' ` ` ` ` ` ` ` ` ( ;.,.>.~ S ",
"` ` ` ` ` ` ` ` ` ` ( ' ,.:.~ L ( ` ` ` ` ` ` ` ` ` ( ;.>.:.~ S ",
"` ' ` ` ' ` ` ` ` ` ` ' >.:.Y L ( ` ` ` ` ` ` ` ` ` ` ] >.:.~ S ",
"` ` ` ` ` ` ` ` ` h e d H G G G I I L I z z h f f h P ! :.:.~ A ",
"` ` ` ` ` ' ` ` x l D.0.u 0 e 1 k J R E } | R.W.!.!.!.= O / p , ",
"` ' ` ` ` ` ` ! u B.B.B.N.m.w.1.k.i.i.q.7.#.m y m n b n d.6.l.* ",
"` ` ` ` ` ` ( w h.V.N.B.N.m.=.m.M.M.M.m.m.M.8.b.D.A.b.A.A.Z.r.  ",
"' ` ` ( ` ` a 3.V.N.N.N.N.9.k.M.m.V.m.m.m.m.y.G.A.Z.A.Z.A.Z.4 2 ",
"( ( ' ;.' W Z D.N.N.N.N.g.9.M.m.M.M.m.m.M.8.A.A.Z.A.Z.A.Z.w.X A ",
"x ! :.,.:.: V.B.N.V.N.N.9.m.M.m.M.m.M.M.m.y.J.A.A.A.Z.A.C.8 < H ",
"g W ] :.; n.N.N.N.N.V.t.e.m.m.M.M.k.k.M.w.b.C.A.A.A.A.G.*.  F F ",
"F L W ; a.V.N.V.N.V.m.=.M.M.m.M.k.M.k.k.y.L.A.G.A.A.N.b.4 < F F ",
"D L q _ D.N.N.N.N.c.i 0 T e +.M.M.M.M.8.b.Z.C.Z.A.C.A.&.  D U U ",
"A S w U.N.m.V.N.c.) K K W.| 3 N M.k.m.p.Z.A.Z.A.C.A.b.6 > A H L ",
"Y % J.N.V.N.V.B.4.} c X.t 0 L j.s.M.e.N.C.C.Z.A.C.A.%.o / Y U D ",
"> h.I.V.N.V.V.m.o.{ R.g t u j. .2.m.w.C.A.C.A.Z.A.z.6 f :.] Y D ",
"@ t.z.N.D.Y.U.3.X.O.) E E [ R r g.8.A.A.A.Z.C.A.A.%.+ ' ,.:.^ A ",
"! % 5 v X.@.&.5 1.u.=.o.X.O.q.V.h.r.L.A.C.A.Z.C.z.7 a ' ,.:.~ S ",
"` ` ! f 0 @ % o & j M o.@.@.9.i.t c.J.Y.T.T.P.P.%.$ ` ' ,.:.~ S ",
"` ` ` ` ` ` ` ` ` ! h f a q % # . 8 C O.*.w.t.w.9 q ` ' ,.:.~ A ",
"' ` ` ` ` ` ` ` ` ` ` ;.,.:.~ L Q W g a > ; % + o W ` ' ,.:.^ A ",
"` ` ` ` ` ` ` ` ` ` ( ' >.:.~ L ( ' ` ` ` ` ` ` ` ` ( ' ,.:.~ A ",
"` ` ` ` ` ` ` ` ` ` ' ;.,.:.~ L ( ` ` ` ` ` ` ` ` ` ` ;.,.;.^ A ",
"' ` ` ` ` ` ` ` ( ` ;.,.5.:.^ L ( ` ` ` ` ` ` ` ( ' :.>.5.:.^ D ",
"/ ` ' ' ' ;.' ' ' ;.,.,.:.' Y L ! ` ' ;.' ` ;.' ' ;.,.,.>.' Y D ",
"c ! :.,.,.,.>.>.>.,.,.>.( W L L P ! :.,.,.,.>.>.>.,.,.,.( P L D ",
"s W ' :.:.:.:.:.:.:.:.' W S F F s W ' >.:.;.:.;.:.:.:.` N s D L ",
"F P W ! ! ! ! ! ! ! ! W F F F F L L Q ! ! ! ! ! ! ! ! W L D L F ",
"H D g g g g g g g g g g F F F F H L g g g g g g g g g g L L D L "
};
