/* XPM */
static char *_408547e4a3042f1f0ec848f3fd67a94G0K6ExwMDyay2iOn[] = {
/* columns rows colors chars-per-pixel */
"32 32 148 2 ",
"   c #1E1C14",
".  c #231D19",
"X  c #242217",
"o  c #252218",
"O  c #29251C",
"+  c #2C291D",
"@  c #312D1E",
"#  c #2D2320",
"$  c #2F2D21",
"%  c #312723",
"&  c #322F20",
"*  c #392924",
"=  c #352B2C",
"-  c #3D2E29",
";  c #353223",
":  c #3A3525",
">  c #3C3827",
",  c #3A352D",
"<  c #3E3A2A",
"1  c #392E33",
"2  c #3E3A31",
"3  c #393139",
"4  c #412F2C",
"5  c #483523",
"6  c #43322B",
"7  c #4A352D",
"8  c #423E2B",
"9  c #533C27",
"0  c #423632",
"q  c #493630",
"w  c #423D36",
"e  c #4C3A34",
"r  c #47383D",
"t  c #4D3C3D",
"y  c #513735",
"u  c #553A35",
"i  c #5A3D35",
"p  c #533E3B",
"a  c #593D3B",
"s  c #46412D",
"d  c #5A402A",
"f  c #454037",
"g  c #4B4430",
"h  c #474239",
"j  c #4A433A",
"k  c #5B4137",
"l  c #534B34",
"z  c #53403C",
"x  c #5B423E",
"c  c #574F38",
"v  c #5B553A",
"b  c #5F593C",
"n  c #62442B",
"m  c #6B462D",
"M  c #7E542D",
"N  c #654730",
"B  c #61443B",
"V  c #67493B",
"C  c #694C3C",
"Z  c #734930",
"A  c #7B4F34",
"S  c #615B3F",
"D  c #7F5134",
"F  c #7E5C3E",
"G  c #463C45",
"H  c #4B3D46",
"J  c #4E3F48",
"K  c #503F46",
"L  c #534146",
"P  c #5D4342",
"I  c #534C45",
"U  c #514048",
"Y  c #5B4449",
"T  c #565148",
"R  c #5B554B",
"E  c #644643",
"W  c #664843",
"Q  c #6A4944",
"!  c #624749",
"~  c #63484B",
"^  c #6D4C4A",
"/  c #714D47",
"(  c #724E4A",
")  c #645D41",
"_  c #61594E",
"`  c #77514C",
"'  c #7A524D",
"]  c #665D52",
"[  c #7B5452",
"{  c #676155",
"}  c #686157",
"|  c #6C645A",
" . c #71695C",
".. c #766E64",
"X. c #7E7465",
"o. c #83572F",
"O. c #865535",
"+. c #875A31",
"@. c #88583A",
"#. c #A3673C",
"$. c #A5693E",
"%. c #815751",
"&. c #855954",
"*. c #8C5C56",
"=. c #8F5E58",
"-. c #916741",
";. c #9A6742",
":. c #956A42",
">. c #9A6A43",
",. c #92605A",
"<. c #A66941",
"1. c #AD6D44",
"2. c #B06F47",
"3. c #AE7347",
"4. c #A6724B",
"5. c #AE7548",
"6. c #AD7A4B",
"7. c #B1724C",
"8. c #B07D4E",
"9. c #A17750",
"0. c #A47B56",
"q. c #B57651",
"w. c #B77A51",
"e. c #B87E52",
"r. c #807266",
"t. c #887D6C",
"y. c #897E70",
"u. c #8B8173",
"i. c #8D8478",
"p. c #948A7C",
"a. c #9B8E7C",
"s. c #9D9486",
"d. c #A29684",
"f. c #A69987",
"g. c #A39989",
"h. c #AA9E8B",
"j. c #A99F91",
"k. c #ADA08C",
"l. c #ADA292",
"z. c #B1A593",
"x. c #BAAC9A",
"c. c #BEB19E",
"v. c #C3B7A5",
"b. c #C7BAA7",
"n. c #CBBEAB",
"m. c #CEC1AE",
"M. c #D3C6B3",
"N. c #D9CDBA",
/* pixels */
"G Y ( ' ` ` ` ` ` ` ' ( L G L L G Y ^ ` ` ( ' ` ` ` ' / Y G J K ",
"Y ! ( ' ` ` ` ` ` ` ` W C C B k e - i B B E W B W / Q A P Y L K ",
"^ ( ` ` ` ` ' ` ` ` ` u >.e.e.e.4.@.7.w.q.5.>.N 4.0.0.5.%.a ! G ",
"' ' ` ` ` ` ` ` ` ` ( u ;.3.3.3.1.1.3.2.2.2.<.4.6.6.w.u.+.B ~ G ",
"' ` ` ` ` ` ' ` ` ` ` i <.3.3.3.1.1.2.2.1.2.$.6.6.6.6.6.o.i ! H ",
"( ` ` ` ` ` ` ` ` ` ( u ;.3.3.3.3.$.2.1.1.2.$.5.6.6.6.6.o.u ! H ",
"' ' ` ` ` ` ` ` ` ` ( i ;.3.3.3.1.$.3.2.1.2.#.5.6.6.6.6.+.u ! G ",
"' ( ` ' ` ` ` ` ` ` ` i ;.3.3.3.$.1.2.2.1.2.$.3.6.6.6.6.o.i ! J ",
"` ` ` ` ` ` ` ` ` ` ` u ;.5.3.5.$.1.2.1.1.1.#.5.6.6.6.6.+.y ~ H ",
"' ` ` ` ` ` ' ` ` ` ` i ;.5.3.5.1.<.1.2.2.3.#.5.6.6.6.6.M u ~ H ",
"' ' ` ( ` ` ` ` ( ' %.k >.5.3.5.1.$.1.2.1.2.#.6.6.6.6.6.O.u ~ H ",
"( ` ' [ ' [ ' ' ' %.=.k <.3.3.3.1.1.1.2.2.1.#.6.6.6.6.6.O.y Y H ",
"x Q &.=.=.=.*.=.=.=.,.i ;.3.3.3.$.1.2.2.1.2.#.6.6.6.6.6.M 6 L U ",
"t E ' &.&.%.&.&.&.&.&.u ;.3.3.3.3.$.1.2.2.1.#.6.6.6.6.6.M = L U ",
"K L E W W W E E E E E 7 ;.3.3.5.1.1.1.2.1.1.;.6.6.6.6.6.M 1 L L ",
"J L P x x x x x x x x 6 ;.3.3.5.1.$.1.2.1.1.#.6.6.6.6.6.M 1 U U ",
"G Y Q ( ( ^ / ( / / ` 7 ;.5.5.5.3.$.2.2.1.1.$.6.6.6.6.6.M 3 L L ",
"Y ! ( ' ' ' ' ' ' ` / O 5 9 d n n m Z A D O.O.-.:.>.:.:.n P L U ",
"^ ( ' ' ` ( ( ' ` ` 7 : v v b b S S S S S b c c c l l g * [ Y U ",
"' ' ' ( ' ' ' ' ' k ; X + + + + + + + @ + ; ; : > < s : Q *.Y G ",
"' ` ` ` ` ` ` ( ` : @ & < s > < > : ; ; ; ; ; $ + + O . &.&.! U ",
"` ` ` ` ` ` ` ' - ; o 8 s < < < > > : ; ; ; ; ; + X O E =.&.Y G ",
"` ` ` ` ` ` ' W : o 8 8 s s < < @ : : & 2 { f O j { # ' =.&.~ U ",
"` ` ` ` ` ' ( 6 + & 8 g s s < < T < $ . X.a.g.u._ , u [ *.&.Y G ",
"' ` ` ' ` ' y ; o < < s s s h l.c.c.z.p...R j _ t.e / ' =.&.! U ",
"` ` ` ` ` Q : X < , { f + o  .g.k.z.x.c.c.x.g.u.I a ' [ =.&.Y G ",
"' ' ( ' ` 6 O O   h.N.N.N.l.| I h _ X.d.k.z.x.x.f ' &.*.,.&.~ U ",
"( ( [ ' k @ X O i.m.b.m.m.m.m.M.N.v.s...{ ] | _ a [ =.=.&.` Y U ",
"x Q %.=.E 6 : % r.y.p.d.z.c.v.b.n.n.m.M.N.n.s.0 =.=.,.*.` P L L ",
"t Q ' *.&.&.&.&.' ` ` E t w I | t.p.s.l.c.b.i.E &.&.&.' P j J U ",
"K L E W Q Q Q Q Q E W E L K L G r t z z z j 0 E E W W E L J L L ",
"U L K p p p p u p p p p L K U U U L p a p z p p p a p p L U L K "
};
