/* XPM */
static char *_b30630edbb7482bf7b546335adb568dVn3WbLnGWzJ1QaZq[] = {
/* columns rows colors chars-per-pixel */
"32 32 79 1 ",
"  c #4B3C3E",
". c #4E3D3D",
"X c #533E3A",
"o c #533E3B",
"O c #523E3E",
"+ c #5B423F",
"@ c #5C433E",
"# c #463C45",
"$ c #483C46",
"% c #493D47",
"& c #4F3F45",
"* c #4E3F48",
"= c #513F46",
"- c #514045",
"; c #504047",
": c #514047",
"> c #574245",
", c #584141",
"< c #594241",
"1 c #5F4442",
"2 c #504048",
"3 c #504049",
"4 c #554148",
"5 c #584348",
"6 c #5C4549",
"7 c #5C454A",
"8 c #5F464A",
"9 c #5F464B",
"0 c #614543",
"q c #664743",
"w c #614644",
"e c #634745",
"r c #664843",
"t c #694944",
"y c #684845",
"u c #6D4B45",
"i c #6C4B46",
"p c #624749",
"a c #60474B",
"s c #634849",
"d c #62484B",
"f c #64484B",
"g c #6A4B48",
"h c #694A4A",
"j c #684A4B",
"k c #6F4D4B",
"l c #694A4C",
"z c #704D49",
"x c #704E4B",
"c c #744F4A",
"v c #714E4C",
"b c #734F4C",
"n c #74504B",
"m c #75504B",
"M c #74504C",
"N c #77514C",
"B c #78514C",
"V c #78524C",
"C c #78524D",
"Z c #7A524C",
"A c #7A534C",
"S c #7C534D",
"D c #7E554F",
"F c #7B5452",
"G c #815751",
"H c #845852",
"J c #845853",
"K c #855953",
"L c #845855",
"P c #845955",
"I c #885A54",
"U c #8A5B55",
"Y c #8C5D56",
"T c #8C5D57",
"R c #8E5D57",
"E c #8F5E57",
"W c #8F5E58",
"Q c #936059",
"! c #92605A",
/* pixels */
"$5xZZNNNNNZk>#::$>kmNNNNNNAk4#33",
"5pxZNNNNNNZMf7427dmANNNNNNNNh7>;",
"xxNNNNNNNNZSPF92hNmZNNNNNNmSPF9#",
"ZZZNNNNNNNNSWH94kANNNNNNNNmSEId%",
"NNNNNNNNNNbFWH9>xAZNNNNNBBBSEPp$",
"NNNNNNNNNNNZIP9:kZNNNNNNmmBFEHf$",
"NNNNNNNNNNZSWP94kZZNNNNNZNmAEPd$",
"NNNNNNNNNNNFILd4kZNNNNNNNNBBTP9:",
"NNNNmZNZNNkAEL92kZNNNNNZNNmAEPd$",
"NNNNNZmNNNZG!H9;kZNNNNNZNNAFEGf$",
"ZZmcZmmmvAHW!H9>MZZZcbZbnAPT!Hd$",
"kmSFFSSFADTWIB9>hNSSFSSFASWWTF8:",
"@uHEEEEUWW!Ic<::<uHWEUWUTWQIx1>;",
".wFIJGHJHPIZ0.== 0SPJJJHHHIZw -;",
"&>wqqqqqrwrw>==::>0tqwqqrrq0>&;;",
"&:<@<@@<++@<=*=2::<@@@<@@<<,&&:;",
"%>hmxkkkxxmh=#22$>hmkknkkkBf>#;;",
"4wmSZZAABBANl94*>dmZZZNZBABBh9:;",
"vNnBNNNNBmNZHF9&dZNNZMNNBmBSPFp#",
"ZZZmnZNNmAcFETs4NANNNNNNBBmA!If$",
"NNNNNNNNmNnFWPp4kZZNnBNNNNBSEHf$",
"NNNNNNNNAZmAIP9*kZNVmBNNNZmFIPf$",
"NNNNNNBnmZmSWP9>kNVVZNNNNNBATLf$",
"NNNNZmBVNNZFIL94kNVVNNNNNNmATLp:",
"NNmZNNNNNNvFTH9;kZNNNNNZNNmAEPd$",
"NNZNNNNNNNZSEPp:kANNNNNZNNAFEGf$",
"ZZNmNNmmcZGE!H9>NZZNcNmmnAPT!Hd$",
"kxZFASFAZJWWTF9:dNSSFZSFASWWTF8:",
"@yGEWWETEEWTx+::<uHWEEIWEE!Ix1>;",
".ySTPHHGHIHS0.::.0FTIHHHHHIAw -;",
"2>yyyyyyyyr0<;::;,ryyyyyyyt0>&;;",
"::OXXooXXXXO:&::;:OXOXXXXXXO:;:;"
};
