/* XPM */
static char *_0baf79fa0994f8dbb44c258fee268674f3m07Z9YFcN3cTE[] = {
/* columns rows colors chars-per-pixel */
"32 32 196 2 ",
"   c #060608",
".  c #0C0A0C",
"X  c #090709",
"o  c #11090B",
"O  c #1D0C0E",
"+  c #19110E",
"@  c #0F0F11",
"#  c #100F12",
"$  c #121215",
"%  c #1C1513",
"&  c #1A191B",
"*  c #171719",
"=  c #240E10",
"-  c #231B1D",
";  c #2B1C1C",
":  c #281714",
">  c #3F1A1D",
",  c #2C1C0E",
"<  c #2E221B",
"1  c #2D2016",
"2  c #32231B",
"3  c #3B271B",
"4  c #3A2616",
"5  c #1F1E21",
"6  c #221F22",
"7  c #232325",
"8  c #2B2424",
"9  c #252528",
"0  c #262A2D",
"q  c #2A292C",
"w  c #342322",
"e  c #3C2A26",
"r  c #322729",
"t  c #35292D",
"y  c #3C2B2B",
"u  c #392423",
"i  c #2F2D31",
"p  c #392D30",
"a  c #342C32",
"s  c #2E3033",
"d  c #3A3336",
"f  c #3A393B",
"g  c #37363B",
"h  c #411617",
"j  c #571B1D",
"k  c #4E321A",
"l  c #533112",
"z  c #583617",
"x  c #422A1C",
"c  c #581F20",
"v  c #432F2C",
"b  c #492E2D",
"n  c #5C2322",
"m  c #552A29",
"M  c #46312E",
"N  c #49342D",
"B  c #4B3829",
"V  c #443123",
"C  c #513626",
"Z  c #4F2F32",
"A  c #443334",
"S  c #4C3431",
"D  c #4B3A3B",
"F  c #513633",
"G  c #553936",
"H  c #593B37",
"J  c #533E3B",
"K  c #5C3D39",
"L  c #712223",
"P  c #722A2A",
"I  c #7E3A37",
"U  c #5D423E",
"Y  c #5D4332",
"T  c #65452A",
"R  c #62423E",
"E  c #71523D",
"W  c #463C45",
"Q  c #4B3E46",
"!  c #4E3F48",
"~  c #503F46",
"^  c #7D3E41",
"/  c #3B4146",
"(  c #444349",
")  c #444448",
"_  c #524146",
"`  c #524048",
"'  c #5B4549",
"]  c #5F4442",
"[  c #4D4E53",
"{  c #534F55",
"}  c #545455",
"|  c #5A545B",
" . c #55545A",
".. c #634643",
"X. c #694541",
"o. c #6B4945",
"O. c #634749",
"+. c #63484B",
"@. c #6B4B4B",
"#. c #704C47",
"$. c #724E4A",
"%. c #7A4C4A",
"&. c #77514C",
"*. c #7A524D",
"=. c #765740",
"-. c #7B5452",
";. c #69645F",
":. c #635F66",
">. c #5A636A",
",. c #6B6B6C",
"<. c #696269",
"1. c #746E77",
"2. c #667179",
"3. c #6E737B",
"4. c #73747C",
"5. c #872B2A",
"6. c #8A3332",
"7. c #993D3B",
"8. c #A02F2F",
"9. c #AC3232",
"0. c #A93738",
"q. c #AA3934",
"w. c #885831",
"e. c #8E4B35",
"r. c #AE5A35",
"t. c #9B6539",
"y. c #986739",
"u. c #81544E",
"i. c #9E4D50",
"p. c #855954",
"a. c #8B5C56",
"s. c #8F5E58",
"d. c #835752",
"f. c #98585D",
"g. c #9B5256",
"h. c #8C4749",
"j. c #BE5E5E",
"k. c #AC554A",
"l. c #9C6E4C",
"z. c #926849",
"x. c #9E7451",
"c. c #876144",
"v. c #AE614D",
"b. c #A4744D",
"n. c #A97549",
"m. c #A57954",
"M. c #BA7F53",
"N. c #BC7349",
"B. c #955E63",
"V. c #93646A",
"C. c #8E6B71",
"Z. c #917871",
"A. c #B76B6C",
"S. c #AD815B",
"D. c #B6865B",
"F. c #B9895D",
"G. c #BE8A62",
"H. c #C58A5E",
"J. c #C68D61",
"K. c #C88D61",
"L. c #C59263",
"P. c #CA9366",
"I. c #CA946C",
"U. c #D3986D",
"Y. c #D09569",
"T. c #7E7982",
"R. c #857C85",
"E. c #897B81",
"W. c #7B8991",
"Q. c #7A878F",
"!. c #828283",
"~. c #83858D",
"^. c #89898A",
"/. c #898891",
"(. c #918891",
"). c #8D9099",
"_. c #91969E",
"`. c #979797",
"'. c #A89090",
"]. c #8F9DA6",
"[. c #949EA8",
"{. c #93A2AC",
"}. c #97A0A6",
"|. c #9BACB6",
" X c #9AABB5",
".X c #A2B3BC",
"XX c #B0ABAC",
"oX c #B2C0C8",
"OX c #BFCAD1",
"+X c #C9C9CA",
"@X c #C9CCD1",
"#X c #ECD4D4",
"$X c #D7DEE2",
"%X c #DBE2E5",
"&X c #E7E5E6",
"*X c #F8F9FA",
/* pixels */
"W ' @.*.*.&.&.&.&.&.*.@.` ( ~ ~ W ' @.&.&.&.&.&.&.&.&.$.' W ` _ ",
"' O.$.*.*.&.&.&.&.&.&.&.@.' _ ~ ' O.&.&.&.&.&.&.*.&.&.&.+.' ' ! ",
"@.$.&.&.&.&.&.&.&.&.F o       * J $.&.*.*.&.&.&.&.&.&.*.p.*.' W ",
"*.*.&.&.&.&.&.&.&.&.F . = h h > b R $.&.&.&.&.&.&.&.&.-.s.a.+.W ",
"&.&.&.&.&.&.&.&.&.&.S . j 8.8.P : u o.%.&.&.&.&.&.&.*.*.s.p.+.W ",
"&.&.&.&.*.&.&.&.&.&...v m c h.%.: % y y y y S o.&.&.&.*.a.p.+.W ",
"&.&.&.*.&.&.&.&.%.U M S 6 * | <.q $ $ $ $ $ & y G U U o.a.p.+.W ",
"*.&.&.&.&.&.&.&.U Y x.v A | 1.R.3.2.2.2.2.2.>.( } ^.(.9 - X.D p ",
"$.&.*.$.&.&.&.X.B m.=.9  ././._. X|.|.|.|.|.Q.0 1 T T T S.S.S.4 ",
"*.&.&.*.&.&.$.N l.B D :.~.{.{.{.|.|.|.|.|.|.Q.0 B D.F.L.G.L.n.* ",
"*.*.&.$.&.&.S z.l.< g ~.[.|.oXOXOXOXOXOXOXOX}.s B F.L.P.G.L.k s ",
"#.&.*.*.*.R E P.l.< / ]. X.X$X*X*X*X*X*X*X*X+Xf B D.L.L.L.n.: ) ",
"U o.p.s.a.3 K.K.l.2 / {.|..X$X&X}.S.Q.Q.!.!.,.7 B D.P.L.L.z d _ ",
"D ..*.a.w G.H.H.l.< / ]. X.X&X@X) & $ @   $ $ X B D.L.P.y.% _ _ ",
"_ _ ..u m.J.H.L.l.< g ~.[..X%X&XXX}. X} + ,.!.9 B D.L.F.l p _ _ ",
"` _ d E P.H.H.H.l.< q :.Q. X@X&X&X#X#XZ.k '.XXd B F.L.y.% ) _ _ ",
"Q D C U.H.H.H.H.z.& # 5  ./._.'.A.j.j.v.r.v.i.; B D.D.l t W _ _ ",
"' w I.H.K.H.H.H.u.g % X Z V.V.f.g.k.i.v.N.k.6.: B D.y., @.' ` _ ",
"y m.Y.H.H.K.H.H.w.;.} . c 0.0.i.C.E.Z.E.E.E.:.6 B m.l F d.*.' ( ",
"; M.M.H.Y.U.U.z.w.e.m . Z f.f.V.(._._.].).].T.7 B w., d.s.a.O.! ",
"X.2 C T w.t.t.C r.q.L o ( R.R./.].].[.[.{.{.Q.0 V l S d.a.p.+.W ",
"&.&.X.G y 2 3 n 5.9.L o ( R.R.4.[ / / / / T.3.7 4 4 &.*.a.p.+.W ",
"&.&.$.&.&.*.*.7.9.9.L o ( R.1.| u O X $ 0 [ | 8 , e $.*.a.p.+.! ",
"&.&.&.&.&.&.%.7.9.9.L o W T.W u L c o g >.g 6 + + N X.-.a.p.+.W ",
"&.&.*.*.$.#.R 6.6.6.n o t { t ; P n . a { a ; v S S H o.p.p.+.W ",
"*.&.$.*.*.R S G F G u . . $ 6 t S u . . $ w N S S S F K *.p.+.! ",
"&.*.&.$.&.U S S N S M w w w r t S v < - ; y S S S S G K d.a.+.Q ",
"$.$.*.d.*...G G F F K K G S p y v S F F F F F F S G K R &.*.' Q ",
"U o.d.s.a.d.*.R K K K K N y t t y M G K H H Y K K K o.*.o.] _ _ ",
"U O.*.a.a.p.p.R G H H S y r t t r y F H H H G G G H o.*.R D ! ` ",
"( _ ] ..o...X.G M y M y t t t t t t v v M y v M v v H .._ ! _ _ ",
"_ _ U J J J J J J J J J _ ` ` _ ` _ J J D U G J J J J J _ ` ` ~ "
};
