/* XPM */
static char *c65b55579f494bf7e22e9c0ce68da132QqN8OnyNcX8CuFKs[] = {
/* columns rows colors chars-per-pixel */
"32 32 176 2 ",
"   c #060608",
".  c #0B0A0C",
"X  c #0B0709",
"o  c #130C0E",
"O  c #1A0E0F",
"+  c #141214",
"@  c #191315",
"#  c #171719",
"$  c #1B1A1D",
"%  c #1A1518",
"&  c #210D0F",
"*  c #260E10",
"=  c #291719",
"-  c #2A1D1E",
";  c #2A1718",
":  c #381315",
">  c #301618",
",  c #391B1C",
"<  c #222023",
"1  c #2F2121",
"2  c #29282C",
"3  c #352424",
"4  c #3B2423",
"5  c #362826",
"6  c #3B2927",
"7  c #322729",
"8  c #34292D",
"9  c #3C2B2B",
"0  c #2E2D30",
"q  c #372F32",
"w  c #323133",
"e  c #3B373C",
"r  c #401517",
"t  c #4D191A",
"y  c #5E1D1E",
"u  c #432F2C",
"i  c #542526",
"p  c #572628",
"a  c #46312F",
"s  c #49312F",
"d  c #4B3122",
"f  c #453331",
"g  c #4C3432",
"h  c #413439",
"j  c #4C3C3E",
"k  c #42383B",
"l  c #513633",
"z  c #563A36",
"x  c #593B37",
"c  c #533E3C",
"v  c #5B3D39",
"b  c #6B2A2C",
"n  c #762627",
"m  c #71312F",
"M  c #683A37",
"N  c #603F3B",
"B  c #653436",
"V  c #753332",
"C  c #5C423E",
"Z  c #62423E",
"A  c #3F3C41",
"S  c #453D44",
"D  c #4A3D45",
"F  c #4E3F48",
"G  c #503F46",
"H  c #7A3D40",
"J  c #454348",
"K  c #49454B",
"L  c #534146",
"P  c #5C4342",
"I  c #524048",
"U  c #5C4549",
"Y  c #474E54",
"T  c #4C4C52",
"R  c #564E55",
"E  c #4F575D",
"W  c #535155",
"Q  c #555258",
"!  c #52595F",
"~  c #5B595D",
"^  c #644643",
"/  c #684742",
"(  c #6C4A45",
")  c #624749",
"_  c #63484B",
"`  c #6B4B4A",
"'  c #664843",
"]  c #724E4A",
"[  c #77514C",
"{  c #7A524D",
"}  c #66565C",
"|  c #7C5551",
" . c #545A61",
".. c #6A5C63",
"X. c #586067",
"o. c #5A656B",
"O. c #616163",
"+. c #6A656D",
"@. c #64636A",
"#. c #796B6C",
"$. c #6D6971",
"%. c #646B72",
"&. c #746E76",
"*. c #6D7174",
"=. c #757577",
"-. c #75757D",
";. c #79747C",
":. c #902B2B",
">. c #9D3B39",
",. c #832829",
"<. c #A53232",
"1. c #AA3333",
"2. c #AE5926",
"3. c #B55C3C",
"4. c #A53F40",
"5. c #8E4341",
"6. c #814B47",
"7. c #864340",
"8. c #9F4A4D",
"9. c #9D4E51",
"0. c #815751",
"q. c #855954",
"w. c #8C5C56",
"e. c #8F5E58",
"r. c #9C5053",
"t. c #A0494C",
"y. c #AD5948",
"u. c #B85E49",
"i. c #93605A",
"p. c #B46247",
"a. c #995D62",
"s. c #866B62",
"d. c #90676D",
"f. c #946066",
"g. c #8B747A",
"h. c #927B77",
"j. c #BF6261",
"k. c #B86F71",
"l. c #C07044",
"z. c #767A82",
"x. c #837D86",
"c. c #868687",
"v. c #8A838C",
"b. c #908088",
"n. c #8B8A93",
"m. c #8C8F99",
"M. c #848B93",
"N. c #90969F",
"B. c #9A969E",
"V. c #AA8F89",
"C. c #A88F94",
"Z. c #8F97A0",
"A. c #939CA6",
"S. c #96A4AD",
"D. c #96A7B1",
"F. c #98A6B0",
"G. c #9AABB5",
"H. c #9DAFB9",
"J. c #9EB0B9",
"K. c #AEAEAF",
"L. c #A2ADB5",
"P. c #A4B5BE",
"I. c #B4B4B5",
"U. c #ACBBC3",
"Y. c gray81",
"T. c #C6C6C6",
"R. c #C7CED3",
"E. c #DADADA",
"W. c #ECCFCF",
"Q. c #E6C9C9",
"!. c #E7D8D9",
"~. c #D4DBE0",
"^. c #E6E6E6",
"/. c #E1E6E9",
"(. c gray93",
"). c #F9F9F9",
/* pixels */
"D L ] { { [ [ [ [ [ { ` L S F F D U ] { [ [ [ { [ [ { ` L S I I ",
"U _ ] [ [ [ [ [ [ 4         % h L _ ] { [ [ [ [ [ [ [ [ ` U I I ",
"` ] [ [ [ [ [ [ ] 4         % h ` ] ] { { [ [ [ [ { [ { 0.| U L ",
"{ { { [ [ [ { [ ] 3 X * : : , 9 v ] { [ [ [ [ [ [ [ [ { e.w._ S ",
"[ [ [ [ [ [ [ [ ] 4 o y :.:.n > 3 ( | [ [ [ [ [ [ [ [ | e.q._ D ",
"[ [ [ [ [ [ [ { ] l , p n 5.H ; @ u g g g g Z [ [ { ] { w.q._ S ",
"[ { { [ [ [ [ [ [ ] G 4 - } ..< X . o o o + u [ [ [ [ | w.q._ D ",
"{ ] [ [ [ [ [ [ [ v g h K $.;. .Y Y Y Y Y Y S a Z [ ] | w.q._ D ",
"[ { [ [ [ { [ [ ] 6 @ W x.x.M.A.D.D.D.D.D.D.! . s [ [ { w.q._ D ",
"[ [ [ [ [ [ [ C 9 k T -.Z.Z.A.F.J.G.J.G.G.G.! . f [ { | w.q._ D ",
"{ { [ ] [ [ [ 9 . T v.A.G.J.J.J.J.J.J.J.J.J.! X a { 0.e.i.q._ D ",
"] [ { { { { { u . ! A.S.P.R.~.~.~.~.~.~.~.~.=.. s 0.w.e.w.{ U D ",
"C ( q.i.w.w.w.s . o.G.G.U./.).(.^.^.^.^.^.^.=.. l w.i.q.] ^ L F ",
"j ^ { q.q.q.0.a . o.H.G.U./.E.c.X.O.O.O.O.X.w . l q.q.{ P j G I ",
"L L ^ ^ ^ ^ ^ 5 . X.D.G.U./.Y.O.w w < . $ 0 $ X 9 ' ^ ^ L F L G ",
"D L P C C C C 3 . ! m.S.U./.(.T.I.I.=.# W K.~ . 5 C C C L F L I ",
"F L ( ] ] ( ] 9 X A $.n.L.Y.^.W.W.W.V.d s.Q.#.X a ( [ ' L J I L ",
"L _ ] { { { { 9   # 0 +.m.B.C.k.j.j.p.2.3.j.B X a { { [ ` U G K ",
"] [ ] { { ] [ l - + O G d.d.f.r.t.t.y.l.p.t.i X a [ [ { q.| ) D ",
"{ [ { [ [ { { ( G - O b 4.4.t.d.g.g.g.h.g.;.C . a { [ { e.q._ D ",
"[ [ [ [ [ [ [ 6.5.u o b t.9.a.b.n.m.m.m.m.m.Y   a [ ] 0.w.q._ D ",
"[ [ { [ [ { [ 5.<.t + R x.x.x.A.F.F.G.G.F.D.E . a { [ { w.q._ D ",
"[ [ [ [ ] 6.5.>.<.t + Q x.x.;.%.o.o.o.o.z.Z.Y . a [ ] | w.q._ D ",
"[ [ [ [ { 5.1.1.<.t + Q x.x...2 . o . . A x.K . a [ ] | e.q._ S ",
"[ [ [ [ [ 5.1.1.<.t + W ;.Q D i r o $ e J J q - g Z ( 0.w.q._ D ",
"{ [ [ { [ 5.<.1.<.t + W +.0 > ,.n & w &.T . - l g l Z 0.e.q._ D ",
"{ { [ ( Z M V V m , . 2 e 9 3 p p O $ e 9 1 6 s g l Z ] q.q._ D ",
"` ] { ( z l l l g - . o @ 6 9 8 3 @ o . - g l l g l v Z { { ) D ",
"C ( q.{ N v x v x s 9 6 3 3 8 8 3 3 5 6 s x x v v v v C Z ) L G ",
"C ^ { { Z v z z z z x l 9 7 8 8 3 9 l x z z z z x x v v v j G G ",
"J L P Z C l u u u u a 9 8 8 8 q 8 8 a u a u u u u s z C L G L G ",
"L L C j C a 6 6 5 5 5 5 8 q 8 8 8 8 5 5 5 5 5 5 5 6 g c G F L I "
};
